<?xml version="1.0" encoding="UTF-8"?>
<svg width="200" height="200" viewBox="0 0 100 100" xmlns="http://www.w3.org/2000/svg">
  <defs>
    <clipPath id="zeme-vyrez">
      <circle cx="50" cy="50" r="45" />
    </clipPath>
  </defs>

  <circle cx="50" cy="50" r="48" fill="none" stroke="#6eb5f0" stroke-width="2" opacity="0.5"/>
  <circle cx="50" cy="50" r="46" fill="none" stroke="#2c81ba" stroke-width="1" opacity="0.3"/>

  <g clip-path="url(#zeme-vyrez)">
    <circle cx="50" cy="50" r="45" fill="#1c5c99"/>

    <path d="M 20 40 C 30 30, 50 30, 60 40 C 70 50, 50 60, 40 60 C 30 60, 10 50, 20 40 Z" fill="#3a7e3d" stroke="#2a5c2c" stroke-width="0.5"/>
    <path d="M 70 30 C 75 25, 90 25, 95 30 C 100 35, 95 50, 85 55 C 75 60, 65 40, 70 30 Z" fill="#3a7e3d" stroke="#2a5c2c" stroke-width="0.5"/>
    <path d="M 10 70 C 15 65, 30 65, 35 70 C 40 75, 30 90, 20 95 C 10 100, 5 85, 10 70 Z" fill="#3a7e3d" stroke="#2a5c2c" stroke-width="0.5"/>

    <path d="M 30 20 C 40 10, 60 10, 70 20 C 80 30, 70 40, 60 40 C 50 40, 20 30, 30 20 Z" fill="#ffffff" opacity="0.7"/>
    <path d="M 15 60 C 20 50, 40 50, 50 60 C 60 70, 40 80, 30 80 C 20 80, 10 70, 15 60 Z" fill="#ffffff" opacity="0.5"/>
  </g>

  <path d="M 50 5 A 45 45 0 0 1 50 95 A 35 35 0 0 0 50 5 Z" fill="#050a12" opacity="0.8"/>
</svg>
